<?xml version="1.0" standalone="no"?>
<!DOCTYPE svg PUBLIC "-//W3C//DTD SVG 20010904//EN"
 "http://www.w3.org/TR/2001/REC-SVG-20010904/DTD/svg10.dtd">
<svg version="1.0" xmlns="http://www.w3.org/2000/svg"
 width="300.000000pt" height="300.000000pt" viewBox="0 0 300.000000 300.000000"
 preserveAspectRatio="xMidYMid meet">
<metadata>
Created by potrace 1.10, written by Peter Selinger 2001-2011
</metadata>
<g transform="translate(0.000000,300.000000) scale(0.100000,-0.100000)"
fill="#000000" stroke="none">
<path d="M570 2382 c-19 -9 -48 -36 -64 -60 -26 -36 -30 -52 -30 -102 1 -74
30 -121 94 -153 l45 -22 885 0 885 0 45 22 c65 33 94 82 94 159 0 54 -4 67
-33 103 -60 75 0 71 -995 71 -818 -1 -894 -2 -926 -18z m1852 -23 c38 -17 74
-79 77 -131 3 -56 -17 -98 -61 -130 l-33 -23 -908 2 c-901 2 -908 2 -937 23
-16 11 -36 35 -44 52 -18 34 -22 128 -6 128 6 0 10 6 10 13 0 15 47 62 70 70
30 11 1808 7 1832 -4z"/>
<path d="M618 2353 c7 -3 16 -2 19 1 4 3 -2 6 -13 5 -11 0 -14 -3 -6 -6z"/>
<path d="M1888 2353 c7 -3 16 -2 19 1 4 3 -2 6 -13 5 -11 0 -14 -3 -6 -6z"/>
<path d="M569 2333 c-13 -16 -12 -17 4 -4 9 7 17 15 17 17 0 8 -8 3 -21 -13z"/>
<path d="M2412 2330 c0 -14 2 -19 5 -12 2 6 2 18 0 25 -3 6 -5 1 -5 -13z"/>
<path d="M1037 2153 c18 -2 50 -2 70 0 21 2 7 4 -32 4 -38 0 -55 -2 -38 -4z"/>
<path d="M161 1894 c0 -11 3 -14 6 -6 3 7 2 16 -1 19 -3 4 -6 -2 -5 -13z"/>
<path d="M605 1673 c-26 -7 -76 -42 -95 -67 -60 -80 -41 -195 42 -253 l41 -28
907 0 907 0 41 28 c45 32 82 98 82 147 0 49 -37 115 -82 147 l-41 28 -891 1
c-490 1 -900 0 -911 -3z m1657 -28 c-3 -5 1 -4 10 2 24 20 146 -4 182 -35 73
-66 57 -193 -30 -244 -30 -17 -71 -18 -755 -17 -398 0 -796 0 -885 -1 -121 -1
-169 2 -195 13 -40 17 -74 51 -64 66 3 6 0 11 -8 11 -20 0 -21 86 -2 127 19
39 60 73 89 73 11 0 26 4 33 8 18 11 1632 9 1625 -3z"/>
<path d="M548 1433 c7 -3 16 -2 19 1 4 3 -2 6 -13 5 -11 0 -14 -3 -6 -6z"/>
<path d="M593 1433 c9 -2 25 -2 35 0 9 3 1 5 -18 5 -19 0 -27 -2 -17 -5z"/>
<path d="M918 1433 c67 -2 177 -2 245 0 67 1 12 3 -123 3 -135 0 -190 -2 -122
-3z"/>
<path d="M1523 1433 c48 -2 125 -2 170 0 45 1 6 3 -88 3 -93 0 -130 -2 -82 -3z"/>
<path d="M1978 1433 c34 -2 88 -2 120 0 31 2 3 3 -63 3 -66 0 -92 -1 -57 -3z"/>
<path d="M2183 1433 c15 -2 39 -2 55 0 15 2 2 4 -28 4 -30 0 -43 -2 -27 -4z"/>
<path d="M571 933 c-19 -10 -48 -35 -64 -55 -27 -33 -30 -46 -30 -103 0 -57 3
-70 30 -103 61 -77 -9 -72 993 -72 1000 1 932 -4 993 72 26 33 31 46 31 101 1
72 -22 117 -80 155 l-33 22 -903 0 c-841 0 -905 -1 -937 -17z m1802 -9 c32 -5
37 -10 38 -32 2 -24 2 -24 6 -4 2 12 8 22 13 22 13 0 40 -42 40 -62 0 -10 6
-17 13 -16 20 5 21 -86 1 -127 -9 -19 -33 -45 -53 -57 l-36 -23 -860 -3 c-473
-2 -879 0 -903 3 -23 4 -40 10 -37 16 3 5 -1 6 -9 3 -9 -3 -16 -1 -16 4 0 6
-9 14 -20 17 -11 3 -23 17 -26 31 -3 13 -10 24 -15 24 -5 0 -9 20 -9 43 0 73
46 144 101 156 39 9 1715 13 1772 5z"/>
<path d="M2429 723 c-13 -16 -12 -17 4 -4 9 7 17 15 17 17 0 8 -8 3 -21 -13z"/>
<path d="M1878 703 c7 -3 16 -2 19 1 4 3 -2 6 -13 5 -11 0 -14 -3 -6 -6z"/>
<path d="M2380 680 c-9 -6 -10 -10 -3 -10 6 0 15 5 18 10 8 12 4 12 -15 0z"/>
<path d="M637 653 c-5 -8 1393 -7 1443 0 14 2 -304 5 -707 6 -402 0 -734 -2
-736 -6z"/>
</g>
</svg>
